<svg width="40" height="40" viewBox="0 0 40 40" fill="none" xmlns="http://www.w3.org/2000/svg">
<mask id="mask0_13_254" style="mask-type:alpha" maskUnits="userSpaceOnUse" x="0" y="0" width="40" height="40">
<rect width="40" height="40" fill="#D9D9D9"/>
</mask>
<g mask="url(#mask0_13_254)">
<path d="M5.00008 35.0007C4.08341 35.0007 3.29869 34.6743 2.64591 34.0215C1.99314 33.3687 1.66675 32.584 1.66675 31.6673V10.0007H5.00008V31.6673H33.3334V35.0007H5.00008ZM11.6667 28.334C10.7501 28.334 9.96536 28.0076 9.31258 27.3548C8.6598 26.702 8.33342 25.9173 8.33342 25.0007V6.66732C8.33342 5.75065 8.6598 4.96593 9.31258 4.31315C9.96536 3.66037 10.7501 3.33398 11.6667 3.33398H20.0001L23.3334 6.66732H35.0001C35.9167 6.66732 36.7015 6.99371 37.3543 7.64648C38.007 8.29926 38.3334 9.08398 38.3334 10.0007V25.0007C38.3334 25.9173 38.007 26.702 37.3543 27.3548C36.7015 28.0076 35.9167 28.334 35.0001 28.334H11.6667ZM11.6667 25.0007H35.0001V10.0007H21.9584L18.6251 6.66732H11.6667V25.0007Z" fill="#111111"/>
</g>
</svg>
