<svg width="40" height="40" viewBox="0 0 40 40" fill="none" xmlns="http://www.w3.org/2000/svg">
<mask id="mask0_13_262" style="mask-type:alpha" maskUnits="userSpaceOnUse" x="0" y="0" width="40" height="40">
<rect width="40" height="40" fill="#D9D9D9"/>
</mask>
<g mask="url(#mask0_13_262)">
<path d="M36.6666 9.99984V29.9998C36.6666 30.9165 36.3402 31.7012 35.6874 32.354C35.0346 33.0068 34.2499 33.3332 33.3333 33.3332H6.66659C5.74992 33.3332 4.9652 33.0068 4.31242 32.354C3.65964 31.7012 3.33325 30.9165 3.33325 29.9998V9.99984C3.33325 9.08317 3.65964 8.29845 4.31242 7.64567C4.9652 6.99289 5.74992 6.6665 6.66659 6.6665H33.3333C34.2499 6.6665 35.0346 6.99289 35.6874 7.64567C36.3402 8.29845 36.6666 9.08317 36.6666 9.99984ZM6.66659 13.3332H33.3333V9.99984H6.66659V13.3332ZM6.66659 19.9998V29.9998H33.3333V19.9998H6.66659Z" fill="#111111"/>
</g>
</svg>
