<svg width="40" height="40" viewBox="0 0 40 40" fill="none" xmlns="http://www.w3.org/2000/svg">
<mask id="mask0_13_250" style="mask-type:alpha" maskUnits="userSpaceOnUse" x="0" y="0" width="40" height="40">
<rect width="40" height="40" fill="#D9D9D9"/>
</mask>
<g mask="url(#mask0_13_250)">
<path d="M33.2501 26.5837L30.6667 24.0003C31.889 22.8614 32.8473 21.5142 33.5417 19.9587C34.2362 18.4031 34.5834 16.7503 34.5834 15.0003C34.5834 13.2503 34.2362 11.6114 33.5417 10.0837C32.8473 8.55588 31.889 7.22255 30.6667 6.08366L33.2501 3.41699C34.8056 4.88921 36.0418 6.62533 36.9584 8.62533C37.8751 10.6253 38.3334 12.7503 38.3334 15.0003C38.3334 17.2503 37.8751 19.3753 36.9584 21.3753C36.0418 23.3753 34.8056 25.1114 33.2501 26.5837ZM27.9167 21.2503L25.2501 18.5837C25.7501 18.1114 26.1529 17.5767 26.4584 16.9795C26.764 16.3823 26.9167 15.7225 26.9167 15.0003C26.9167 14.2781 26.764 13.6184 26.4584 13.0212C26.1529 12.4239 25.7501 11.8892 25.2501 11.417L27.9167 8.75033C28.8056 9.55588 29.5001 10.4934 30.0001 11.5628C30.5001 12.6323 30.7501 13.7781 30.7501 15.0003C30.7501 16.2225 30.5001 17.3684 30.0001 18.4378C29.5001 19.5073 28.8056 20.4448 27.9167 21.2503ZM15.0001 21.667C13.1667 21.667 11.5973 21.0142 10.2917 19.7087C8.98619 18.4031 8.33342 16.8337 8.33342 15.0003C8.33342 13.167 8.98619 11.5975 10.2917 10.292C11.5973 8.98644 13.1667 8.33366 15.0001 8.33366C16.8334 8.33366 18.4029 8.98644 19.7084 10.292C21.014 11.5975 21.6667 13.167 21.6667 15.0003C21.6667 16.8337 21.014 18.4031 19.7084 19.7087C18.4029 21.0142 16.8334 21.667 15.0001 21.667ZM1.66675 35.0003V30.3337C1.66675 29.417 1.90286 28.5559 2.37508 27.7503C2.8473 26.9448 3.50008 26.3337 4.33341 25.917C5.75008 25.1948 7.3473 24.5837 9.12508 24.0837C10.9029 23.5837 12.8612 23.3337 15.0001 23.3337C17.139 23.3337 19.0973 23.5837 20.8751 24.0837C22.6529 24.5837 24.2501 25.1948 25.6667 25.917C26.5001 26.3337 27.1529 26.9448 27.6251 27.7503C28.0973 28.5559 28.3334 29.417 28.3334 30.3337V35.0003H1.66675ZM5.00008 31.667H25.0001V30.3337C25.0001 30.0281 24.9237 29.7503 24.7709 29.5003C24.6181 29.2503 24.4167 29.0559 24.1667 28.917C23.1667 28.417 21.882 27.917 20.3126 27.417C18.7431 26.917 16.9723 26.667 15.0001 26.667C13.0279 26.667 11.257 26.917 9.68758 27.417C8.11814 27.917 6.83342 28.417 5.83342 28.917C5.58341 29.0559 5.38203 29.2503 5.22925 29.5003C5.07647 29.7503 5.00008 30.0281 5.00008 30.3337V31.667ZM15.0001 18.3337C15.9167 18.3337 16.7015 18.0073 17.3542 17.3545C18.007 16.7017 18.3334 15.917 18.3334 15.0003C18.3334 14.0837 18.007 13.2989 17.3542 12.6462C16.7015 11.9934 15.9167 11.667 15.0001 11.667C14.0834 11.667 13.2987 11.9934 12.6459 12.6462C11.9931 13.2989 11.6667 14.0837 11.6667 15.0003C11.6667 15.917 11.9931 16.7017 12.6459 17.3545C13.2987 18.0073 14.0834 18.3337 15.0001 18.3337Z" fill="#111111"/>
</g>
</svg>
