<svg width="48" height="48" viewBox="0 0 48 48" fill="none" xmlns="http://www.w3.org/2000/svg">
<mask id="mask0_13_258" style="mask-type:alpha" maskUnits="userSpaceOnUse" x="0" y="0" width="48" height="48">
<rect width="48" height="48" fill="#D9D9D9"/>
</mask>
<g mask="url(#mask0_13_258)">
<path d="M35.9999 26V22H43.9999V26H35.9999ZM38.3999 40L31.9999 35.2L34.3999 32L40.7999 36.8L38.3999 40ZM34.3999 16L31.9999 12.8L38.3999 8L40.7999 11.2L34.3999 16ZM9.99988 38V30H7.99988C6.89988 30 5.95821 29.6083 5.17488 28.825C4.39154 28.0417 3.99988 27.1 3.99988 26V22C3.99988 20.9 4.39154 19.9583 5.17488 19.175C5.95821 18.3917 6.89988 18 7.99988 18H15.9999L25.9999 12V36L15.9999 30H13.9999V38H9.99988ZM21.9999 28.9V19.1L17.0999 22H7.99988V26H17.0999L21.9999 28.9ZM27.9999 30.7V17.3C28.8999 18.1 29.6249 19.075 30.1749 20.225C30.7249 21.375 30.9999 22.6333 30.9999 24C30.9999 25.3667 30.7249 26.625 30.1749 27.775C29.6249 28.925 28.8999 29.9 27.9999 30.7Z" fill="#111111"/>
</g>
</svg>
